<svg id="Layer_1" data-name="Layer 1" xmlns="http://www.w3.org/2000/svg" xmlns:xlink="http://www.w3.org/1999/xlink" viewBox="0 0 37.71 40"><defs><style>.cls-1{fill:none;}.cls-2{clip-path:url(#clip-path);}.cls-3{fill:#fff;}.cls-4{fill:#e85984;}.cls-5{fill:#e51050;}.cls-6{fill:#770829;}</style><clipPath id="clip-path" transform="translate(-1.14 0)"><rect class="cls-1" x="-8.86" y="-1.65" width="57.72" height="43.29"/></clipPath></defs><g class="cls-2"><path class="cls-3" d="M18.92,6.33h5.2q2.34,7.78,4.69,15.58h-4c-.3-1.09-.61-2.18-.91-3.27,0,0,0-.15-.1-.13H19.21c-.29,1.14-.58,2.27-.86,3.4-1.3,0-2.59,0-3.89,0q2.23-7.78,4.46-15.57M21.51,8.9a1,1,0,0,0-.08.34c-.51,2.12-1,4.25-1.5,6.37h3.2c-.5-2.1-1-4.2-1.52-6.3,0-.14-.06-.28-.1-.41" transform="translate(-1.14 0)"/><path class="cls-3" d="M14.43,31.32a2.59,2.59,0,0,1,1.78-.57,2.42,2.42,0,0,1,1.64.55,1.87,1.87,0,0,1,.55,1.34H17a.81.81,0,0,0-.43-.73,1,1,0,0,0-1.15.2,1.21,1.21,0,0,0-.23.74v1.91a1.35,1.35,0,0,0,.17.76.81.81,0,0,0,.67.37.93.93,0,0,0,.75-.23,1,1,0,0,0,.23-.65h1.38a2.08,2.08,0,0,1-.58,1.4,2.49,2.49,0,0,1-1.69.55,2.51,2.51,0,0,1-1.78-.62,2.27,2.27,0,0,1-.64-1.58V33a2.21,2.21,0,0,1,.69-1.63" transform="translate(-1.14 0)"/><path class="cls-3" d="M20.47,30.9h2l1.77,5.91h-1.5l-.36-1.29c-.59,0-1.18,0-1.77,0l-.33,1.29H18.79l1.68-5.91m1,1c-.21.84-.4,1.69-.6,2.54h1.21c-.2-.85-.41-1.7-.61-2.54" transform="translate(-1.14 0)"/><path class="cls-3" d="M24.94,30.9h1.48a5.14,5.14,0,0,1,1.66.14,2,2,0,0,1,1.3,1.19,5.53,5.53,0,0,1,.18,2,2.53,2.53,0,0,1-.6,1.85,2.75,2.75,0,0,1-1.95.74H24.94V30.9M26.42,32v3.79a3,3,0,0,0,1-.1A1,1,0,0,0,28,35a6.11,6.11,0,0,0,.08-1.48,1.8,1.8,0,0,0-.32-1.34c-.37-.33-.89-.22-1.34-.24" transform="translate(-1.14 0)"/><path class="cls-4" d="M5.74.89C6.24.6,6.73.28,7.23,0q0,14.07,0,28.14c-.82.48-1.63,1-2.44,1.46a4,4,0,0,0-.34.23c-1.12.63-2.2,1.32-3.31,2q0-14.07,0-28.13C2.67,2.73,4.21,1.82,5.74.89" transform="translate(-1.14 0)"/><path class="cls-4" d="M21.51,8.9c0,.13.07.27.1.41l-.11-.16-.07.09a1,1,0,0,1,.08-.34" transform="translate(-1.14 0)"/><path class="cls-5" d="M7.23,0C11.16,0,15.08,0,19,0H33.85a2.28,2.28,0,0,1,.78.07A2,2,0,0,1,36.08,2V28c0,.06,0,.19-.08.16H7.24q0-14.07,0-28.14M18.92,6.33Q16.7,14.11,14.46,21.9c1.3,0,2.59,0,3.89,0,.28-1.13.57-2.26.86-3.4h4.62c.09,0,.07.09.1.13.3,1.09.61,2.18.91,3.27h4q-2.34-7.8-4.69-15.58h-5.2" transform="translate(-1.14 0)"/><path class="cls-5" d="M21.5,9.15l.11.16c.5,2.1,1,4.2,1.52,6.3h-3.2c.49-2.12,1-4.25,1.5-6.37l.07-.09" transform="translate(-1.14 0)"/><path class="cls-6" d="M36.08,6.25h2.77q0,16.88,0,33.75h-32a2.91,2.91,0,0,1-1-.1A2,2,0,0,1,4.46,38c0-2.73,0-5.47,0-8.2a4,4,0,0,1,.34-.23c.81-.48,1.62-1,2.44-1.46H36c.11,0,.07-.1.08-.16V6.25M14.43,31.32A2.21,2.21,0,0,0,13.74,33v1.81a2.27,2.27,0,0,0,.64,1.58,2.51,2.51,0,0,0,1.78.62,2.49,2.49,0,0,0,1.69-.55,2.08,2.08,0,0,0,.58-1.4H17.05a1,1,0,0,1-.23.65.93.93,0,0,1-.75.23.81.81,0,0,1-.67-.37,1.35,1.35,0,0,1-.17-.76V32.85a1.21,1.21,0,0,1,.23-.74,1,1,0,0,1,1.15-.2.81.81,0,0,1,.43.73H18.4a1.87,1.87,0,0,0-.55-1.34,2.42,2.42,0,0,0-1.64-.55,2.59,2.59,0,0,0-1.78.57m6-.42-1.68,5.91h1.47l.33-1.29c.59,0,1.18,0,1.77,0l.36,1.29h1.5L22.45,30.9h-2m4.47,0v5.91H27A2.75,2.75,0,0,0,29,36.07a2.53,2.53,0,0,0,.6-1.85,5.53,5.53,0,0,0-.18-2A2,2,0,0,0,28.08,31a5.14,5.14,0,0,0-1.66-.14H24.94" transform="translate(-1.14 0)"/><path class="cls-6" d="M21.46,31.88c.2.84.41,1.69.61,2.54H20.86c.2-.85.39-1.7.6-2.54" transform="translate(-1.14 0)"/><path class="cls-6" d="M26.42,32c.45,0,1-.09,1.34.24a1.8,1.8,0,0,1,.32,1.34A6.11,6.11,0,0,1,28,35a1,1,0,0,1-.54.63,3,3,0,0,1-1,.1V32" transform="translate(-1.14 0)"/></g></svg>