<svg id="Layer_1" data-name="Layer 1" xmlns="http://www.w3.org/2000/svg" viewBox="0 0 38.09 40"><defs><style>.cls-1{fill:#a52005;}.cls-2{fill:#fff;}.cls-3{fill:#ff3d00;}.cls-4{fill:#dd2c00;}</style></defs><path class="cls-1" d="M39,19V31.67a.41.41,0,0,1-.29.46Q29.57,36,20.4,39.85a1,1,0,0,1-.79,0Q10.43,36,1.23,32.11a.36.36,0,0,1-.27-.4Q1,19,1,6.29c0-.31.16-.38.39-.45L17.43.77C18.2.52,19,.27,19.75,0a.84.84,0,0,1,.47,0L38.7,5.85a.41.41,0,0,1,.35.47C39,10.54,39,14.77,39,19Zm-3-7c-.54.18-1,.36-1.5.49-.29.08-.37.24-.4.52-.1.89-.22,1.78-.34,2.66-.28,2.13-.55,4.25-.83,6.38L32.59,25h-.05l-2-11.08c-.53.18-1,.34-1.47.52a.37.37,0,0,0-.18.25c-.07.37-.13.75-.19,1.12-.46,2.83-.93,5.65-1.39,8.47-.17,1-.33,2-.5,3.05h0L25,15.77c-.65.23-1.26.43-1.86.66-.07,0-.12.2-.11.29.11.73.25,1.46.37,2.19q1,5.74,2,11.48c.09.53.18,1.06.28,1.63.58-.24,1.1-.47,1.64-.68a.43.43,0,0,0,.32-.42c0-.29.1-.57.15-.85.52-3.09,1.05-6.17,1.57-9.26l.36-2.09h.05L31.8,29.48A13,13,0,0,1,33,29a.9.9,0,0,0,.69-.86c.31-2.36.67-4.71,1-7.06s.69-4.67,1-7C35.85,13.39,35.94,12.71,36.05,12ZM6,23.92c0,.15,0,.25,0,.35a6.37,6.37,0,0,0,.55,2.39A7.09,7.09,0,0,0,11.93,31a2.43,2.43,0,0,0,2.94-2,6,6,0,0,0-.72-4.37,12.11,12.11,0,0,0-3.32-3.41A13.29,13.29,0,0,1,9,19.52a2.41,2.41,0,0,1-.56-2.13,1.2,1.2,0,0,1,1.33-1.11,3,3,0,0,1,2.65,1.78,8.93,8.93,0,0,1,.4,1.54c0,.1.06.25.13.27.66.24,1.33.46,2,.69,0-.19,0-.35,0-.5a7,7,0,0,0-.66-2.46,6.06,6.06,0,0,0-5-3.65,2.61,2.61,0,0,0-2.75,1.73,5,5,0,0,0,.08,3.51,7.85,7.85,0,0,0,2.51,3.35c.75.63,1.54,1.23,2.29,1.87a3.37,3.37,0,0,1,1.36,2.91c-.07.83-.57,1.37-1.3,1.29a3.72,3.72,0,0,1-3.06-2A4.07,4.07,0,0,1,8,24.89c0-.09,0-.24-.12-.27C7.27,24.38,6.63,24.16,6,23.92Z" transform="translate(-0.95 0)"/><path class="cls-2" d="M36.05,12c-.11.75-.2,1.43-.3,2.11-.34,2.33-.69,4.67-1,7s-.7,4.7-1,7.06A.9.9,0,0,1,33,29a13,13,0,0,0-1.22.49L29.75,18.72H29.7l-.36,2.09c-.52,3.09-1.05,6.17-1.57,9.26-.05.28-.12.56-.15.85a.43.43,0,0,1-.32.42c-.54.21-1.06.44-1.64.68-.1-.57-.19-1.1-.28-1.63q-1-5.75-2-11.48c-.12-.73-.26-1.46-.37-2.19,0-.09,0-.26.11-.29.6-.23,1.21-.43,1.86-.66l1.74,11.5h0c.17-1,.33-2,.5-3.05.46-2.82.93-5.64,1.39-8.47.06-.37.12-.75.19-1.12a.37.37,0,0,1,.18-.25c.47-.18.94-.34,1.47-.52l2,11.08h.05L33,22c.28-2.13.55-4.25.83-6.38.12-.88.24-1.77.34-2.66,0-.28.11-.44.4-.52C35,12.32,35.51,12.14,36.05,12Z" transform="translate(-0.95 0)"/><polygon class="cls-3" points="0.17 5.93 19.14 12.45 37.92 5.93 19.14 0 0.17 5.93"/><polygon class="cls-4" points="19.01 40 19.01 12.33 0.04 5.81 0.04 31.9 19.01 40"/><path class="cls-2" d="M6,23.92c.67.24,1.31.46,1.94.7.07,0,.12.18.12.27a4.07,4.07,0,0,0,.44,1.69,3.72,3.72,0,0,0,3.06,2c.73.08,1.23-.46,1.3-1.29a3.37,3.37,0,0,0-1.36-2.91c-.75-.64-1.54-1.24-2.29-1.87a7.85,7.85,0,0,1-2.51-3.35,5,5,0,0,1-.08-3.51A2.61,2.61,0,0,1,9.33,14a6.06,6.06,0,0,1,5,3.65A7,7,0,0,1,15,20.06c0,.15,0,.31,0,.5-.7-.23-1.37-.45-2-.69-.07,0-.11-.17-.13-.27a8.93,8.93,0,0,0-.4-1.54,3,3,0,0,0-2.65-1.78,1.2,1.2,0,0,0-1.33,1.11A2.41,2.41,0,0,0,9,19.52a13.29,13.29,0,0,0,1.83,1.69,12.11,12.11,0,0,1,3.32,3.41A6,6,0,0,1,14.87,29a2.43,2.43,0,0,1-2.94,2,7.09,7.09,0,0,1-5.42-4.32A6.37,6.37,0,0,1,6,24.27C6,24.17,6,24.07,6,23.92Z" transform="translate(-0.95 0)"/></svg>